# This file uses centimeters as units for non-parametric coordinates.

mtllib objSolar.mtl
g default
v 4.169996 -0.018048 6.230918
v -4.170006 -0.018045 6.230913
v 4.169996 9.044297 -0.790352
v -4.170006 9.044297 -0.790352
v 4.170003 9.322742 -0.443195
v -4.170006 9.322744 -0.443202
v 4.169996 0.260421 6.578084
v -4.170006 0.260423 6.578077
v 3.983831 9.147175 -0.307323
v -3.983835 9.147175 -0.307323
v -3.983835 0.435986 6.442204
v 3.983838 0.435986 6.442204
v 3.983834 9.111288 -0.353686
v -3.983838 9.111290 -0.353691
v -3.983835 0.400104 6.395830
v 3.983838 0.400104 6.395830
v 0.973001 3.285973 3.673878
v -0.973006 3.285973 3.673878
v -0.973006 4.109959 3.036145
v 0.973001 4.109959 3.036145
v 0.972994 0.328212 -3.649110
v -0.973006 0.328214 -3.649116
v -0.973000 0.312975 -6.296180
v 0.973001 0.312975 -6.296180
v -4.170006 0.059680 6.327812
v 4.169996 0.059678 6.327818
v 4.169998 9.122016 -0.693454
v -4.170006 9.122017 -0.693456
v -4.170006 0.185170 6.484260
v 4.169996 0.185168 6.484265
v 4.170001 9.247496 -0.537011
v -4.170006 9.247497 -0.537016
v -4.225242 0.142083 6.518821
v 4.225232 0.142080 6.518826
v -4.248121 0.056585 6.448797
v 4.248112 0.056582 6.448803
v 4.225237 9.290584 -0.571572
v 4.248115 9.240786 -0.670225
v -4.248122 9.240787 -0.670228
v -4.225242 9.290585 -0.571576
v -4.225242 0.016593 6.362374
v 4.225232 0.016590 6.362379
v 4.225234 9.165104 -0.728015
v -4.225242 9.165105 -0.728016
v 1.248677 0.330370 -3.367205
v -1.248690 0.330374 -3.367212
v -1.248682 0.310817 -6.578084
v 1.248686 0.310817 -6.578084
v 1.248676 -0.000002 -3.364603
v -1.248690 0.000002 -3.364610
v -1.248683 0.000000 -6.575482
v 1.248685 0.000000 -6.575482
vt 0.375000 0.000000
vt 0.625000 0.000000
vt 0.375000 0.250000
vt 0.625000 0.250000
vt 0.375000 0.500000
vt 0.625000 0.500000
vt 0.375000 0.750000
vt 0.625000 0.750000
vt 0.375000 1.000000
vt 0.625000 1.000000
vt 0.875000 0.000000
vt 0.875000 0.250000
vt 0.125000 0.000000
vt 0.125000 0.250000
vt 0.375000 0.500000
vt 0.625000 0.500000
vt 0.625000 0.750000
vt 0.375000 0.750000
vt 0.375000 0.500000
vt 0.625000 0.500000
vt 0.625000 0.750000
vt 0.375000 0.750000
vt 0.063031 0.041443
vt 0.936970 0.041443
vt 0.936969 0.958557
vt 0.063030 0.958557
vt 0.375000 0.000000
vt 0.625000 0.000000
vt 0.625000 0.250000
vt 0.375000 0.250000
vt 0.375000 0.000000
vt 0.625000 0.000000
vt 0.625000 0.250000
vt 0.375000 0.250000
vt 0.625000 0.930221
vt 0.694780 0.000000
vt 0.305221 0.000000
vt 0.375000 0.930221
vt 0.305221 0.250000
vt 0.375000 0.319779
vt 0.625000 0.319779
vt 0.694780 0.250000
vt 0.625000 0.817560
vt 0.807440 0.000000
vt 0.192560 0.000000
vt 0.375000 0.817560
vt 0.192560 0.250000
vt 0.375000 0.432440
vt 0.625000 0.432440
vt 0.807440 0.250000
vt 0.625000 0.878294
vt 0.746706 0.000000
vt 0.253294 0.000000
vt 0.375000 0.878294
vt 0.253294 0.250000
vt 0.375000 0.371706
vt 0.625000 0.371706
vt 0.746706 0.250000
vt 0.375000 0.817560
vt 0.625000 0.817560
vt 0.192560 0.250000
vt 0.192560 0.000000
vt 0.625000 0.432440
vt 0.375000 0.432440
vt 0.807440 0.000000
vt 0.807440 0.250000
vt 0.625000 0.930221
vt 0.375000 0.930221
vt 0.305221 0.000000
vt 0.305221 0.250000
vt 0.375000 0.319779
vt 0.625000 0.319779
vt 0.694780 0.250000
vt 0.694780 0.000000
vt 0.375000 0.000000
vt 0.625000 0.000000
vt 0.625000 0.250000
vt 0.375000 0.250000
vt 0.375000 0.000000
vt 0.625000 0.000000
vt 0.625000 0.250000
vt 0.375000 0.250000
vn -0.000001 -1.000000 -0.000000
vn -0.000001 -1.000000 -0.000000
vn -0.000001 -1.000000 -0.000000
vn -0.000001 -1.000000 -0.000000
vn 0.000001 0.780077 -0.625684
vn 0.000001 0.780077 -0.625684
vn 0.000001 0.780077 -0.625684
vn 0.000001 0.780077 -0.625684
vn -0.000000 0.612478 0.790488
vn -0.000000 0.612478 0.790488
vn -0.000000 0.612478 0.790488
vn -0.000000 0.612478 0.790488
vn -0.000001 -0.780061 0.625703
vn -0.000001 -0.780061 0.625703
vn -0.000001 -0.780061 0.625703
vn -0.000001 -0.780061 0.625703
vn -1.000000 -0.000003 -0.000002
vn -1.000000 -0.000003 -0.000002
vn -1.000000 -0.000003 -0.000002
vn -1.000000 -0.000003 -0.000002
vn 1.000000 -0.000004 -0.000006
vn 1.000000 -0.000004 -0.000006
vn 1.000000 -0.000004 -0.000006
vn 1.000000 -0.000004 -0.000006
vn -0.000010 0.612245 0.790668
vn -0.000000 0.612245 0.790668
vn -0.000000 0.612277 0.790644
vn -0.000011 0.612277 0.790643
vn -0.000000 0.612251 0.790663
vn -0.000000 0.612282 0.790639
vn -0.000010 0.612251 0.790663
vn -0.000011 0.612283 0.790639
vn -0.000000 -0.790816 0.612054
vn -0.000000 -0.790816 0.612054
vn -0.000000 -0.790816 0.612054
vn -0.000000 -0.790816 0.612054
vn 1.000000 -0.000012 -0.000019
vn 1.000000 -0.000012 -0.000019
vn 1.000000 -0.000012 -0.000019
vn 1.000000 -0.000012 -0.000019
vn 0.000000 0.790886 -0.611964
vn 0.000000 0.790886 -0.611964
vn 0.000000 0.790886 -0.611964
vn 0.000000 0.790886 -0.611964
vn -1.000000 -0.000012 -0.000016
vn -1.000000 -0.000012 -0.000016
vn -1.000000 -0.000012 -0.000016
vn -1.000000 -0.000012 -0.000016
vn -0.000317 -0.612192 -0.790709
vn 0.000318 -0.612192 -0.790709
vn 0.000406 -0.612235 -0.790676
vn -0.000406 -0.612235 -0.790675
vn 0.000169 -0.612729 -0.790293
vn 0.000357 -0.612638 -0.790363
vn -0.000168 -0.612729 -0.790293
vn -0.000357 -0.612638 -0.790363
vn -0.000001 -0.927224 0.374506
vn -0.000001 -0.927224 0.374506
vn -0.000001 -0.927224 0.374506
vn -0.000001 -0.927224 0.374506
vn -1.000000 0.000002 -0.000001
vn -1.000000 0.000002 -0.000001
vn -1.000000 0.000002 -0.000001
vn -1.000000 0.000002 -0.000001
vn 1.000000 -0.000004 0.000001
vn 1.000000 -0.000004 0.000001
vn 1.000000 -0.000004 0.000001
vn 1.000000 -0.000004 0.000001
vn 0.000000 0.926268 -0.376865
vn 0.000000 0.926268 -0.376865
vn 0.000000 0.939542 -0.342433
vn 0.000000 0.939542 -0.342434
vn -0.000001 -0.780061 0.625704
vn -0.000001 -0.780061 0.625704
vn -0.000001 -0.780061 0.625704
vn -0.000001 -0.780061 0.625704
vn 1.000000 -0.000004 -0.000006
vn 1.000000 -0.000004 -0.000006
vn 1.000000 -0.000004 -0.000006
vn 1.000000 -0.000004 -0.000006
vn 0.000000 0.780074 -0.625687
vn 0.000000 0.780074 -0.625687
vn 0.000000 0.780074 -0.625687
vn 0.000000 0.780074 -0.625687
vn -1.000000 0.000000 0.000000
vn -1.000000 0.000000 0.000000
vn -1.000000 0.000000 0.000000
vn -1.000000 0.000000 0.000000
vn -0.000001 -0.633620 0.773644
vn -0.000001 -0.633620 0.773644
vn -0.000001 -0.778387 0.627784
vn -0.000001 -0.778387 0.627785
vn 0.978329 0.126846 0.163654
vn 0.978329 0.126846 0.163654
vn 1.000000 -0.000045 -0.000058
vn 0.999985 0.003302 0.004261
vn 0.000000 0.781736 -0.623609
vn 0.000000 0.781735 -0.623611
vn 0.000000 0.892705 -0.450641
vn 0.000000 0.892705 -0.450641
vn -0.999985 0.003309 0.004268
vn -1.000000 -0.000039 -0.000051
vn -0.978328 0.126849 0.163659
vn -0.978328 0.126849 0.163659
vn -0.000001 -0.907543 0.419958
vn -0.000001 -0.907543 0.419958
vn 0.970697 -0.147215 -0.189932
vn 0.970698 -0.147215 -0.189932
vn 0.000000 0.606883 -0.794791
vn 0.000000 0.606883 -0.794791
vn -0.970699 -0.147208 -0.189927
vn -0.970699 -0.147208 -0.189927
vn -0.000001 0.618100 0.786099
vn 0.000009 0.618102 0.786098
vn 0.000009 0.618101 0.786099
vn -0.000001 0.618100 0.786100
vn -0.000001 0.618092 0.786106
vn -0.000001 0.618091 0.786107
vn 0.000009 0.618093 0.786105
vn 0.000009 0.618092 0.786105
vn -0.000008 -0.618101 -0.786098
vn 0.000001 -0.618100 -0.786099
vn 0.000001 -0.618100 -0.786100
vn -0.000008 -0.618101 -0.786099
vn 0.000001 -0.618100 -0.786099
vn 0.000001 -0.618099 -0.786100
vn -0.000008 -0.618101 -0.786099
vn -0.000008 -0.618100 -0.786099
vn 0.000001 0.999978 -0.006686
vn 0.000001 0.999978 -0.006686
vn 0.000001 0.999978 -0.006702
vn 0.000001 0.999978 -0.006702
vn 0.000000 0.999978 -0.006702
vn 0.000000 0.999978 -0.006702
vn -0.000003 0.007875 0.999969
vn -0.000003 0.007875 0.999969
vn -0.000003 0.007875 0.999969
vn -0.000003 0.007875 0.999969
vn -1.000000 0.000001 -0.000002
vn -1.000000 0.000001 -0.000002
vn -1.000000 0.000001 -0.000002
vn -1.000000 0.000001 -0.000002
vn 0.000000 -0.008370 -0.999965
vn 0.000000 -0.008370 -0.999965
vn 0.000000 -0.008370 -0.999965
vn 0.000000 -0.008370 -0.999965
vn 1.000000 -0.000001 0.000003
vn 1.000000 -0.000001 0.000003
vn 1.000000 -0.000001 0.000003
vn 1.000000 -0.000001 0.000003
s off
g solar
usemtl blinn3SG
f 49/79/1 50/80/2 51/81/3 52/82/4
usemtl blinn1SG
f 31/48/5 32/49/6 6/6/7 5/5/8
usemtl blinn2SG
f 13/23/9 14/24/10 15/25/11 16/26/12
usemtl blinn1SG
f 7/7/13 8/8/14 29/43/15 30/46/16
f 32/50/17 29/44/18 8/11/19 6/12/20
f 7/13/21 30/45/22 31/47/23 5/14/24
s 1
f 5/5/25 6/6/26 10/16/27 9/15/28
f 6/6/26 8/8/29 11/17/30 10/16/27
f 8/8/29 7/7/31 12/18/32 11/17/30
f 7/7/31 5/5/25 9/15/28 12/18/32
s off
f 9/15/33 10/16/34 14/20/35 13/19/36
f 10/16/37 11/17/38 15/21/39 14/20/40
f 11/17/41 12/18/42 16/22/43 15/21/44
f 12/18/45 9/15/46 13/19/47 16/22/48
s 2
f 1/1/49 2/2/50 18/28/51 17/27/52
f 2/2/50 4/4/53 19/29/54 18/28/51
f 4/4/53 3/3/55 20/30/56 19/29/54
f 3/3/55 1/1/49 17/27/52 20/30/56
s off
f 17/27/57 18/28/58 22/32/59 21/31/60
f 18/28/61 19/29/62 23/33/63 22/32/64
f 20/30/65 17/27/66 21/31/67 24/34/68
s 3
f 19/29/69 20/30/70 24/34/71 23/33/72
s off
f 26/38/73 25/35/74 2/10/75 1/9/76
f 27/39/77 26/37/78 1/1/79 3/3/80
f 3/3/81 4/4/82 28/41/83 27/40/84
f 2/2/85 25/36/86 28/42/87 4/4/88
s 4
f 34/59/89 33/60/90 35/51/91 36/54/92
s 5
f 37/61/93 34/62/94 36/53/95 38/55/96
s 6
f 38/56/97 39/57/98 40/63/99 37/64/100
s 7
f 39/58/101 35/52/102 33/65/103 40/66/104
s 4
f 36/54/92 35/51/91 41/67/105 42/68/106
s 5
f 38/55/96 36/53/95 42/69/107 43/70/108
s 6
f 43/71/109 44/72/110 39/57/98 38/56/97
s 7
f 44/73/111 41/74/112 35/52/102 39/58/101
s 8
f 30/46/113 29/43/114 33/60/115 34/59/116
f 31/47/117 30/45/113 34/62/116 37/61/118
f 32/49/119 31/48/117 37/64/118 40/63/120
f 29/44/114 32/50/119 40/66/120 33/65/115
s 9
f 25/35/121 26/38/122 42/68/123 41/67/124
f 26/37/122 27/39/125 43/70/126 42/69/123
f 27/40/125 28/41/127 44/72/128 43/71/126
f 28/42/127 25/36/121 41/74/124 44/73/128
s 3
usemtl blinn3SG
f 21/31/129 22/32/130 46/76/131 45/75/132
f 22/32/130 23/33/72 47/77/133 46/76/131
f 23/33/72 24/34/71 48/78/134 47/77/133
f 24/34/71 21/31/129 45/75/132 48/78/134
s off
f 45/75/135 46/76/136 50/80/137 49/79/138
f 46/76/139 47/77/140 51/81/141 50/80/142
f 47/77/143 48/78/144 52/82/145 51/81/146
f 48/78/147 45/75/148 49/79/149 52/82/150
